<?xml version="1.0" encoding="UTF-8" standalone="no"?>
<!-- Created with Inkscape (http://www.inkscape.org/) -->

<svg
   xmlns:dc="http://purl.org/dc/elements/1.1/"
   xmlns:cc="http://creativecommons.org/ns#"
   xmlns:rdf="http://www.w3.org/1999/02/22-rdf-syntax-ns#"
   xmlns:svg="http://www.w3.org/2000/svg"
   xmlns="http://www.w3.org/2000/svg"
   xmlns:sodipodi="http://sodipodi.sourceforge.net/DTD/sodipodi-0.dtd"
   xmlns:inkscape="http://www.inkscape.org/namespaces/inkscape"
   width="1360.9218mm"
   height="995.11157mm"
   viewBox="0 0 1360.9218 995.11151"
   version="1.1"
   id="svg8"
   sodipodi:docname="progressUP.svg"
   inkscape:version="0.92.4 (5da689c313, 2019-01-14)">
  <defs
     id="defs2">
	
</defs>
  <sodipodi:namedview
     id="base"
     pagecolor="#ffffff"
     bordercolor="#666666"
     borderopacity="1.0"
     inkscape:pageopacity="0.0"
     inkscape:pageshadow="2"
     inkscape:zoom="0.030935922"
     inkscape:cx="16171.82"
     inkscape:cy="-38.810657"
     inkscape:document-units="mm"
     inkscape:current-layer="layer1"
     showgrid="false"
     fit-margin-top="0"
     fit-margin-left="0"
     fit-margin-right="0"
     fit-margin-bottom="0"
     inkscape:window-width="1920"
     inkscape:window-height="1001"
     inkscape:window-x="-9"
     inkscape:window-y="-9"
     inkscape:window-maximized="1"
     inkscape:lockguides="true" />
  <metadata
     id="metadata5">
    <rdf:RDF>
      <cc:Work
         rdf:about="">
        <dc:format>image/svg+xml</dc:format>
        <dc:type
           rdf:resource="http://purl.org/dc/dcmitype/StillImage" />
        <dc:title></dc:title>
      </cc:Work>
    </rdf:RDF>
  </metadata>
  <g
     inkscape:label="Layer 1"
     inkscape:groupmode="layer"
     id="layer1"
     transform="translate(3492.6186,1571.9768)">
    <g
       style="fill:#a4243b;fill-opacity:0.22352941;stroke:#e2953b;stroke-width:71.09145355;stroke-miterlimit:4;stroke-dasharray:none;stroke-opacity:1"
       transform="matrix(0,-0.0253195,-0.0253195,0,1158.3177,513.77902)"
       id="g1153">
      <path
         style="fill:#a4243b;fill-opacity:0.22352941;stroke:#e2953b;stroke-width:71.09145355;stroke-miterlimit:4;stroke-dasharray:none;stroke-opacity:1"
         inkscape:connector-curvature="0"
         d="M 0,3640 V 0 h 6440 6440 V 3640 7280 H 6440 0 Z m 12800,0 V 80 H 6440 80 v 3560 3560 h 6360 6360 z"
         id="path1151" />
    </g>
    <g
       id="g1157"
       transform="matrix(0,-0.0253195,-0.0253195,0,1158.3177,513.77902)"
       style="fill:#a4243b;fill-opacity:0.22352941;stroke:#e2953b;stroke-width:71.09145355;stroke-miterlimit:4;stroke-dasharray:none;stroke-opacity:1">
      <path
         id="path1155"
         d="M 0,3640 V 0 h 6440 6440 V 3640 7280 H 6440 0 Z m 12800,0 V 80 H 6440 80 v 3560 3560 h 6360 6360 z"
         inkscape:connector-curvature="0"
         style="fill:#a4243b;fill-opacity:0.22352941;stroke:#e2953b;stroke-width:71.09145355;stroke-miterlimit:4;stroke-dasharray:none;stroke-opacity:1" />
    </g>
    <g
       id="g1161"
       transform="matrix(0,-0.0253195,-0.0253195,0,1158.3177,513.77902)"
       style="fill:#a4243b;fill-opacity:0.22352941;stroke:#e2953b;stroke-width:71.09145355;stroke-miterlimit:4;stroke-dasharray:none;stroke-opacity:1">
      <path
         id="path1159"
         d="M 0,3640 V 0 h 6440 6440 V 3640 7280 H 6440 0 Z m 12800,0 V 80 H 6440 80 v 3560 3560 h 6360 6360 z"
         inkscape:connector-curvature="0"
         style="fill:#a4243b;fill-opacity:0.22352941;stroke:#e2953b;stroke-width:71.09145355;stroke-miterlimit:4;stroke-dasharray:none;stroke-opacity:1" />
    </g>
    <g
       style="fill:#a4243b;fill-opacity:0.22352941;stroke:#e2953b;stroke-width:71.09145355;stroke-miterlimit:4;stroke-dasharray:none;stroke-opacity:1"
       transform="matrix(0,-0.0253195,-0.0253195,0,1158.3177,513.77902)"
       id="g1165">
      <path
         style="fill:#a4243b;fill-opacity:0.22352941;stroke:#e2953b;stroke-width:71.09145355;stroke-miterlimit:4;stroke-dasharray:none;stroke-opacity:1"
         inkscape:connector-curvature="0"
         d="M 0,3640 V 0 h 6440 6440 V 3640 7280 H 6440 0 Z m 12800,0 V 80 H 6440 80 v 3560 3560 h 6360 6360 z"
         id="path1163" />
    </g>
    <g
       id="g1169"
       transform="matrix(0,-0.0253195,-0.0253195,0,1158.3177,513.77902)"
       style="fill:#a4243b;fill-opacity:0.22352941;stroke:#e2953b;stroke-width:71.09145355;stroke-miterlimit:4;stroke-dasharray:none;stroke-opacity:1">
      <path
         id="path1167"
         d="M 0,3640 V 0 h 6440 6440 V 3640 7280 H 6440 0 Z m 12800,0 V 80 H 6440 80 v 3560 3560 h 6360 6360 z"
         inkscape:connector-curvature="0"
         style="fill:#a4243b;fill-opacity:0.22352941;stroke:#e2953b;stroke-width:71.09145355;stroke-miterlimit:4;stroke-dasharray:none;stroke-opacity:1" />
    </g>
    <g
       style="fill:#a4243b;fill-opacity:0.22352941;stroke:#e2953b;stroke-width:71.09145355;stroke-miterlimit:4;stroke-dasharray:none;stroke-opacity:1"
       transform="matrix(0,-0.0253195,-0.0253195,0,1158.3177,513.77902)"
       id="g1173">
      <path
         style="fill:#a4243b;fill-opacity:0.22352941;stroke:#e2953b;stroke-width:71.09145355;stroke-miterlimit:4;stroke-dasharray:none;stroke-opacity:1"
         inkscape:connector-curvature="0"
         d="M 0,3640 V 0 h 6440 6440 V 3640 7280 H 6440 0 Z m 12800,0 V 80 H 6440 80 v 3560 3560 h 6360 6360 z"
         id="path1171" />
    </g>
    <g
       style="fill:#a4243b;fill-opacity:0.22352941;stroke:#e2953b;stroke-width:71.09145355;stroke-miterlimit:4;stroke-dasharray:none;stroke-opacity:1"
       transform="matrix(0,-0.0253195,-0.0253195,0,1158.3177,513.77902)"
       id="g1177">
      <path
         style="fill:#a4243b;fill-opacity:0.22352941;stroke:#e2953b;stroke-width:71.09145355;stroke-miterlimit:4;stroke-dasharray:none;stroke-opacity:1"
         inkscape:connector-curvature="0"
         d="M 0,3640 V 0 h 6440 6440 V 3640 7280 H 6440 0 Z m 12800,0 V 80 H 6440 80 v 3560 3560 h 6360 6360 z"
         id="path1175" />
    </g>
    <rect
       style="opacity:1;fill:#a4243b;fill-opacity:0.22352941;stroke:#e2953b;stroke-width:1.80000007;stroke-miterlimit:4;stroke-dasharray:none;stroke-opacity:1"
       id="rect1179"
       width="109.16994"
       height="3.8296711"
       x="-187.11397"
       y="1064.8772"
       transform="rotate(-90)" />
    <g
       id="g1185"
       transform="matrix(0,-0.0253195,-0.0253195,0,1158.3177,513.77902)"
       style="fill:#a4243b;fill-opacity:0.22352941;stroke:#e2953b;stroke-width:71.09145355;stroke-miterlimit:4;stroke-dasharray:none;stroke-opacity:1">
      <path
         id="path1183"
         d="M 0,3640 V 0 h 6440 6440 V 3640 7280 H 6440 0 Z m 12800,0 V 80 H 6440 80 v 3560 3560 h 6360 6360 z"
         inkscape:connector-curvature="0"
         style="fill:#a4243b;fill-opacity:0.22352941;stroke:#e2953b;stroke-width:71.09145355;stroke-miterlimit:4;stroke-dasharray:none;stroke-opacity:1" />
    </g>
    <g
       style="fill:#a4243b;fill-opacity:0.22352941;stroke:#e2953b;stroke-width:71.09145355;stroke-miterlimit:4;stroke-dasharray:none;stroke-opacity:1"
       transform="matrix(0,-0.0253195,-0.0253195,0,1158.3177,513.77902)"
       id="g1189">
      <path
         style="fill:#a4243b;fill-opacity:0.22352941;stroke:#e2953b;stroke-width:71.09145355;stroke-miterlimit:4;stroke-dasharray:none;stroke-opacity:1"
         inkscape:connector-curvature="0"
         d="M 0,3640 V 0 h 6440 6440 V 3640 7280 H 6440 0 Z m 12800,0 V 80 H 6440 80 v 3560 3560 h 6360 6360 z"
         id="path1187" />
    </g>
    <g
       style="fill:#a4243b;fill-opacity:0.22352941;stroke:#e2953b;stroke-width:71.09145355;stroke-miterlimit:4;stroke-dasharray:none;stroke-opacity:1"
       transform="matrix(0,-0.0253195,-0.0253195,0,1158.3177,513.77902)"
       id="g1193">
      <path
         style="fill:#a4243b;fill-opacity:0.22352941;stroke:#e2953b;stroke-width:71.09145355;stroke-miterlimit:4;stroke-dasharray:none;stroke-opacity:1"
         inkscape:connector-curvature="0"
         d="M 0,3640 V 0 h 6440 6440 V 3640 7280 H 6440 0 Z m 12800,0 V 80 H 6440 80 v 3560 3560 h 6360 6360 z"
         id="path1191" />
    </g>
    <g
       id="g1197"
       transform="matrix(0,-0.0253195,-0.0253195,0,1158.3177,513.77902)"
       style="fill:#a4243b;fill-opacity:0.22352941;stroke:#e2953b;stroke-width:71.09145355;stroke-miterlimit:4;stroke-dasharray:none;stroke-opacity:1">
      <path
         id="path1195"
         d="M 0,3640 V 0 h 6440 6440 V 3640 7280 H 6440 0 Z m 12800,0 V 80 H 6440 80 v 3560 3560 h 6360 6360 z"
         inkscape:connector-curvature="0"
         style="fill:#a4243b;fill-opacity:0.22352941;stroke:#e2953b;stroke-width:71.09145355;stroke-miterlimit:4;stroke-dasharray:none;stroke-opacity:1" />
    </g>
    <g
       style="fill:#a4243b;fill-opacity:0.22352941;stroke:#e2953b;stroke-width:71.09145355;stroke-miterlimit:4;stroke-dasharray:none;stroke-opacity:1"
       transform="matrix(0,-0.0253195,-0.0253195,0,1158.3177,513.77902)"
       id="g1201">
      <path
         style="fill:#a4243b;fill-opacity:0.22352941;stroke:#e2953b;stroke-width:71.09145355;stroke-miterlimit:4;stroke-dasharray:none;stroke-opacity:1"
         inkscape:connector-curvature="0"
         d="M 0,3640 V 0 h 6440 6440 V 3640 7280 H 6440 0 Z m 12800,0 V 80 H 6440 80 v 3560 3560 h 6360 6360 z"
         id="path1199" />
    </g>
    <g
       id="g1205"
       transform="matrix(0,-0.0253195,-0.0253195,0,1158.3177,513.77902)"
       style="fill:#a4243b;fill-opacity:0.22352941;stroke:#e2953b;stroke-width:71.09145355;stroke-miterlimit:4;stroke-dasharray:none;stroke-opacity:1">
      <path
         id="path1203"
         d="M 0,3640 V 0 h 6440 6440 V 3640 7280 H 6440 0 Z m 12800,0 V 80 H 6440 80 v 3560 3560 h 6360 6360 z"
         inkscape:connector-curvature="0"
         style="fill:#a4243b;fill-opacity:0.22352941;stroke:#e2953b;stroke-width:71.09145355;stroke-miterlimit:4;stroke-dasharray:none;stroke-opacity:1" />
    </g>
    <g
       id="g1209"
       transform="matrix(0,-0.0253195,-0.0253195,0,1158.3177,513.77902)"
       style="fill:#a4243b;fill-opacity:1;stroke:#a4243b;stroke-width:71.09145355;stroke-miterlimit:4;stroke-dasharray:none;stroke-opacity:1">
      <path
         id="path1207"
         d="M 0,3640 V 0 h 6440 6440 V 3640 7280 H 6440 0 Z m 12800,0 V 80 H 6440 80 v 3560 3560 h 6360 6360 z"
         inkscape:connector-curvature="0"
         style="fill:#a4243b;fill-opacity:1;stroke:#a4243b;stroke-width:71.09145355;stroke-miterlimit:4;stroke-dasharray:none;stroke-opacity:1" />
    </g>
    <rect
       transform="rotate(-90)"
       y="1064.8772"
       x="-187.11397"
       height="3.8296711"
       width="138.56958"
       id="rect1211"
       style="opacity:1;fill:#a4243b;fill-opacity:1;stroke:#a4243b;stroke-width:1.80000007;stroke-miterlimit:4;stroke-dasharray:none;stroke-opacity:1" />
    <rect
       style="opacity:1;fill:#a4243b;fill-opacity:1;stroke:#a4243b;stroke-width:1.80000007;stroke-miterlimit:4;stroke-dasharray:none;stroke-opacity:1"
       id="rect1213"
       width="66.406815"
       height="3.8296711"
       x="-579.78052"
       y="1064.8772"
       transform="rotate(-90)" />
    <rect
       transform="rotate(-90)"
       y="1389.9368"
       x="-276.31635"
       height="3.8296711"
       width="109.16994"
       id="rect1243"
       style="opacity:1;fill:#a4243b;fill-opacity:0.22352941;stroke:#e2953b;stroke-width:1.80000007;stroke-miterlimit:4;stroke-dasharray:none;stroke-opacity:1" />
    <g
       style="fill:#a4243b;fill-opacity:1;stroke:#a4243b;stroke-width:71.09145355;stroke-miterlimit:4;stroke-dasharray:none;stroke-opacity:1"
       transform="matrix(0,-0.0253195,-0.0253195,0,1482.0997,600.40595)"
       id="g1271">
      <path
         style="fill:#a4243b;fill-opacity:1;stroke:#a4243b;stroke-width:71.09145355;stroke-miterlimit:4;stroke-dasharray:none;stroke-opacity:1"
         inkscape:connector-curvature="0"
         d="M 0,3640 V 0 h 6440 6440 V 3640 7280 H 6440 0 Z m 12800,0 V 80 H 6440 80 v 3560 3560 h 6360 6360 z"
         id="path1269" />
    </g>
    <rect
       style="opacity:1;fill:#a4243b;fill-opacity:1;stroke:#a4243b;stroke-width:1.80000007;stroke-miterlimit:4;stroke-dasharray:none;stroke-opacity:1"
       id="rect1273"
       width="138.56958"
       height="3.8296711"
       x="-276.31635"
       y="1389.9368"
       transform="rotate(-90)" />
    <rect
       transform="rotate(-90)"
       y="1389.9368"
       x="-666.81274"
       height="3.8296711"
       width="66.406815"
       id="rect1275"
       style="opacity:1;fill:#a4243b;fill-opacity:1;stroke:#a4243b;stroke-width:1.80000007;stroke-miterlimit:4;stroke-dasharray:none;stroke-opacity:1" />
    <g
       style="fill:#e2953b;fill-opacity:0;stroke:#e2953b;stroke-width:89.95001984;stroke-miterlimit:4;stroke-dasharray:none;stroke-opacity:1"
       transform="matrix(0,-0.01581566,-0.0253195,0,1776.6868,581.1134)"
       id="g1279">
      <path
         style="fill:#e2953b;fill-opacity:0;stroke:#e2953b;stroke-width:89.95001984;stroke-miterlimit:4;stroke-dasharray:none;stroke-opacity:1"
         inkscape:connector-curvature="0"
         d="M 0,3640 V 0 h 6440 6440 V 3640 7280 H 6440 0 Z m 12800,0 V 80 H 6440 80 v 3560 3560 h 6360 6360 z"
         id="path1277" />
    </g>
    <rect
       transform="rotate(-90)"
       y="1683.2463"
       x="-812.28705"
       height="3.8296711"
       width="109.16994"
       id="rect1305"
       style="opacity:1;fill:#e2953b;fill-opacity:1;stroke:#e2953b;stroke-width:1.80000007;stroke-miterlimit:4;stroke-dasharray:none;stroke-opacity:1" />
    <rect
       transform="rotate(-90)"
       y="1683.2463"
       x="-376.85852"
       height="3.8296711"
       width="35.086605"
       id="rect1335"
       style="opacity:1;fill:#e2953b;fill-opacity:1;stroke:#e2953b;stroke-width:1.80000007;stroke-miterlimit:4;stroke-dasharray:none;stroke-opacity:1" />
    <rect
       style="opacity:1;fill:#e2953b;fill-opacity:1;stroke:#e2953b;stroke-width:1.80000007;stroke-miterlimit:4;stroke-dasharray:none;stroke-opacity:1"
       id="rect1337"
       width="187.21265"
       height="3.8296711"
       x="-768.32599"
       y="1682.256"
       transform="rotate(-90)" />
    <g
       id="g1341"
       transform="matrix(0,-0.02915342,-0.0253195,0,2067.717,501.0657)"
       style="fill:#e2953b;fill-opacity:0;stroke:#e2953b;stroke-width:66.25217438;stroke-miterlimit:4;stroke-dasharray:none;stroke-opacity:1">
      <path
         id="path1339"
         d="M 0,3640 V 0 h 6440 6440 V 3640 7280 H 6440 0 Z m 12800,0 V 80 H 6440 80 v 3560 3560 h 6360 6360 z"
         inkscape:connector-curvature="0"
         style="fill:#e2953b;fill-opacity:0;stroke:#e2953b;stroke-width:66.25217438;stroke-miterlimit:4;stroke-dasharray:none;stroke-opacity:1" />
    </g>
    <rect
       style="opacity:1;fill:#e2953b;fill-opacity:1;stroke:#e2953b;stroke-width:1.80000007;stroke-miterlimit:4;stroke-dasharray:none;stroke-opacity:1"
       id="rect1343"
       width="109.16994"
       height="3.8296711"
       x="-732.1377"
       y="1974.2764"
       transform="rotate(-90)" />
    <rect
       style="opacity:1;fill:#e2953b;fill-opacity:1;stroke:#e2953b;stroke-width:1.80000007;stroke-miterlimit:4;stroke-dasharray:none;stroke-opacity:1"
       id="rect1345"
       width="35.086605"
       height="3.8296711"
       x="-126.72572"
       y="1974.2764"
       transform="rotate(-90)" />
    <rect
       transform="rotate(-90)"
       y="1973.2861"
       x="-688.17664"
       height="3.8296711"
       width="187.21265"
       id="rect1347"
       style="opacity:1;fill:#e2953b;fill-opacity:1;stroke:#e2953b;stroke-width:1.80000007;stroke-miterlimit:4;stroke-dasharray:none;stroke-opacity:1" />
    <g
       style="fill:#e2953b;fill-opacity:0;stroke:#e2953b;stroke-width:72.00262451;stroke-miterlimit:4;stroke-dasharray:none;stroke-opacity:1"
       transform="matrix(0,-0.02468273,-0.0253195,0,2345.2475,203.70579)"
       id="g1351">
      <path
         style="fill:#e2953b;fill-opacity:0;stroke:#e2953b;stroke-width:72.00262451;stroke-miterlimit:4;stroke-dasharray:none;stroke-opacity:1"
         inkscape:connector-curvature="0"
         d="M 0,3640 V 0 h 6440 6440 V 3640 7280 H 6440 0 Z m 12800,0 V 80 H 6440 80 v 3560 3560 h 6360 6360 z"
         id="path1349" />
    </g>
    <rect
       transform="rotate(-90)"
       y="2251.8069"
       x="113.05169"
       height="3.8296711"
       width="88.540512"
       id="rect1355"
       style="opacity:1;fill:#e2953b;fill-opacity:1;stroke:#e2953b;stroke-width:1.80000007;stroke-miterlimit:4;stroke-dasharray:none;stroke-opacity:1" />
    <rect
       style="opacity:1;fill:#e2953b;fill-opacity:1;stroke:#e2953b;stroke-width:1.80000019;stroke-miterlimit:4;stroke-dasharray:none;stroke-opacity:1"
       id="rect1357"
       width="87.788383"
       height="3.8296711"
       x="-292.84833"
       y="2250.8167"
       transform="rotate(-90)" />
    <g
       id="g1361"
       transform="matrix(0,-0.02760917,-0.0253195,0,893.43943,589.91781)"
       style="fill:#e2953b;fill-opacity:1;stroke:#e2953b;stroke-width:68.07979584;stroke-miterlimit:4;stroke-dasharray:none;stroke-opacity:1">
      <path
         id="path1359"
         d="M 0,3640 V 0 h 6440 6440 V 3640 7280 H 6440 0 Z m 12800,0 V 80 H 6440 80 v 3560 3560 h 6360 6360 z"
         inkscape:connector-curvature="0"
         style="fill:#e2953b;fill-opacity:1;stroke:#e2953b;stroke-width:68.07979584;stroke-miterlimit:4;stroke-dasharray:none;stroke-opacity:1" />
    </g>
    <rect
       style="opacity:1;fill:#e2953b;fill-opacity:1;stroke:#e2953b;stroke-width:1.80000007;stroke-miterlimit:4;stroke-dasharray:none;stroke-opacity:1"
       id="rect1363"
       width="88.540512"
       height="3.8296711"
       x="-235.46777"
       y="799.99884"
       transform="rotate(-90)" />
    <rect
       transform="rotate(-90)"
       y="797.44678"
       x="-677.70618"
       height="3.8296711"
       width="87.788383"
       id="rect1365"
       style="opacity:1;fill:#e2953b;fill-opacity:1;stroke:#e2953b;stroke-width:1.80000019;stroke-miterlimit:4;stroke-dasharray:none;stroke-opacity:1" />
    <g
       style="fill:#e2953b;fill-opacity:0;stroke:#e2953b;stroke-width:86.22372437;stroke-miterlimit:4;stroke-dasharray:none;stroke-opacity:1"
       transform="matrix(0,-0.0172122,-0.0253195,0,602.65018,586.4323)"
       id="g1369">
      <path
         style="fill:#e2953b;fill-opacity:0;stroke:#e2953b;stroke-width:86.22372437;stroke-miterlimit:4;stroke-dasharray:none;stroke-opacity:1"
         inkscape:connector-curvature="0"
         d="M 0,3640 V 0 h 6440 6440 V 3640 7280 H 6440 0 Z m 12800,0 V 80 H 6440 80 v 3560 3560 h 6360 6360 z"
         id="path1367" />
    </g>
    <rect
       transform="rotate(-90)"
       y="509.20959"
       x="-365.89529"
       height="3.8296711"
       width="50.742893"
       id="rect1371"
       style="opacity:1;fill:#e2953b;fill-opacity:1;stroke:#e2953b;stroke-width:1.80000019;stroke-miterlimit:4;stroke-dasharray:none;stroke-opacity:1" />
    <rect
       style="opacity:1;fill:#e2953b;fill-opacity:1;stroke:#e2953b;stroke-width:1.80000019;stroke-miterlimit:4;stroke-dasharray:none;stroke-opacity:1"
       id="rect1373"
       width="87.788383"
       height="3.8296711"
       x="-675.57831"
       y="508.21936"
       transform="rotate(-90)" />
    <path
       id="path1375"
       d="M -246.7733,-253.78804 H -8.1947083 V -712.74239 -1171.6968 H -246.7733 -485.3519 v 458.95441 458.95435 z m 0,-912.20746 h 233.335102 v 453.25311 453.25305 H -246.7733 -480.10841 v -453.25305 -453.25311 z"
       inkscape:connector-curvature="0"
       style="fill:#000000;fill-opacity:1;stroke:#000000;stroke-width:1.79999995;stroke-linejoin:round;stroke-miterlimit:4;stroke-dasharray:none;stroke-opacity:1" />
    <g
       id="g1592"
       style="fill:#e2953b;fill-opacity:1;stroke:#e2953b;stroke-opacity:1">
      <path
         style="fill:#e2953b;fill-opacity:1;stroke:#e2953b;stroke-width:1.79999971;stroke-miterlimit:4;stroke-dasharray:none;stroke-opacity:1"
         d="m 353.41756,-966.12015 -4.93183,-4.69811 0.77635,-316.41384 c 0.4268,-174.0274 1.08047,-318.902 1.45238,-321.9438 0.47051,-3.8445 1.49958,-6.2994 3.37562,-8.0537 l 2.69888,-2.5233 62.34909,-0.7594 c 75.66,-0.9219 359.64761,-0.241 362.16009,0.8677 1.91417,0.8447 36.80112,39.7342 82.99496,92.517 41.63407,47.5729 46.92413,53.7003 52.72319,61.0666 l 5.2838,6.7126 v 56.9879 56.988 l 20.03699,-18.231 c 20.28131,-18.4533 28.02767,-24.2085 32.58588,-24.2085 3.29067,0 12.30276,7.6542 44.11404,37.4675 29.2388,27.402 34.0557,32.6012 34.9435,37.7177 0.5497,3.1654 -0.05,4.3601 -4.9443,9.8553 -3.0632,3.4394 -32.832,31.9659 -66.153,63.392 l -60.58311,57.1385 v 105.8843 105.88385 l -4.75041,4.5254 -4.75042,4.52569 H 635.57417 358.34937 Z m 539.01299,-24.06203 c 0.29643,-0.72547 0.40759,-37.94822 0.24681,-82.71652 l -0.29146,-81.3974 -32.07278,29.2302 -32.07266,29.23 -32.83578,11.4407 c -50.89081,17.7321 -75.98473,25.8746 -79.74065,25.8746 -4.53928,0 -9.29492,-2.3859 -11.75646,-5.8981 -3.74475,-5.3438 -3.93386,-4.7496 23.3098,-73.2584 l 15.7389,-39.5785 74.99692,-70.1885 74.99682,-70.1881 v -61.8326 -61.8325 l -35.74221,-0.6983 c -19.65883,-0.3841 -47.49775,-0.6983 -61.86495,-0.6983 H 769.2205 l -3.8902,-3.7517 -3.89008,-3.7515 -0.67717,-71.4471 c -0.37219,-39.2961 -0.75322,-71.5659 -0.84661,-71.7108 -0.38411,-0.5974 -373.59111,-0.1884 -377.48509,0.4133 l -4.23307,0.6541 v 301.7124 301.71225 H 635.0453 c 204.43772,0 256.95677,-0.26905 257.38525,-1.31923 z M 456.46068,-1113.2713 c -10.08315,-0.5789 -11.83721,-0.9725 -14.41165,-3.2343 -1.61213,-1.4165 -3.52767,-4.4363 -4.25648,-6.7108 -1.17205,-3.6577 -1.03713,-4.643 1.16714,-8.5278 4.56689,-8.0489 -2.25006,-7.4836 94.06771,-7.8052 l 86.53417,-0.2893 3.48714,3.9554 c 1.91798,2.1755 3.79541,5.491 4.17188,7.3674 0.85116,4.2423 -2.20637,10.3991 -6.68552,13.4622 -3.1386,2.1464 -4.30156,2.1807 -77.89011,2.3102 -41.08695,0.072 -79.86999,-0.165 -86.18428,-0.5278 z m 1.8327,-82.3197 c -13.50876,-0.7512 -16.55963,-2.0077 -19.64827,-8.0932 -3.29906,-6.5004 0.43483,-14.9809 7.62824,-17.3254 2.2305,-0.7272 32.24506,-1.1013 88.32109,-1.1013 h 84.94198 l 3.44796,3.6715 c 4.59136,4.8889 5.53235,9.8621 2.82892,14.9482 -1.15039,2.1645 -3.52593,4.9162 -5.27858,6.1145 -3.13756,2.1457 -4.31626,2.1812 -76.76106,2.3133 -40.46613,0.073 -78.93214,-0.1638 -85.48028,-0.5276 z m 14.1631,-82.4428 c -14.27985,-0.3422 -26.77492,-0.9836 -27.76694,-1.425 -0.99203,-0.4416 -3.01698,-2.3233 -4.49976,-4.1818 -5.56137,-6.9698 -2.09522,-17.3137 6.63446,-19.8 5.25411,-1.4965 255.27229,-2.5888 302.56757,-1.3219 l 31.97702,0.8563 3.86395,3.9423 c 3.20992,3.2753 3.86392,4.7514 3.86392,8.7228 0,3.9715 -0.654,5.4479 -3.86364,8.7228 l -3.86353,3.9423 -29.71959,0.6939 c -35.79543,0.8355 -242.679,0.7232 -279.19346,-0.1517 z m 8.82162,-82.2774 -35.20329,-0.5873 -3.37737,-3.0265 c -6.90433,-6.1868 -7.20004,-13.9731 -0.74558,-19.6425 2.73664,-2.4039 3.73425,-2.5212 29.08649,-3.4283 14.43892,-0.5167 89.49629,-0.7928 166.79357,-0.6136 135.36546,0.3133 140.67024,0.3986 144.05667,2.3153 4.69622,2.658 7.20811,6.9003 7.20811,12.1726 0,3.4633 -0.77502,5.1288 -3.84195,8.2576 l -3.84156,3.9195 -42.15867,0.7232 c -48.50406,0.8319 -206.03522,0.7768 -257.97642,-0.091 z m 286.60953,256.0349 c 23.00193,-8.1634 26.85322,-9.7501 26.85322,-11.0605 0,-1.5686 -30.12957,-28.673 -31.8727,-28.673 -0.97458,0 -2.29063,1.3063 -2.92475,2.9025 -0.6341,1.5963 -4.74444,11.9262 -9.13381,22.9553 -4.38962,11.0295 -7.98405,20.4092 -7.98825,20.8446 -0.0136,1.6403 3.7895,0.5827 25.06629,-6.9689 z m 152.5336,-116.6057 98.01877,-91.6478 -22.27945,-20.8542 -22.27891,-20.8545 -97.97119,91.5938 c -53.88393,50.377 -97.65052,92.098 -97.25904,92.7135 0.9371,1.4736 42.44946,40.5221 43.1842,40.6209 0.31182,0.042 44.67505,-41.1652 98.58562,-91.5717 z m -47.18276,-250.5235 c 0.9386,-0.8783 -0.48446,-2.6097 -27.68609,-33.6801 -11.49365,-13.1281 -28.51681,-32.5839 -37.82989,-43.2352 l -16.93258,-19.3663 -0.5642,46.9291 c -0.31034,25.8112 -0.36703,47.8007 -0.12576,48.8657 0.41764,1.8428 2.41364,1.9193 41.39203,1.5831 22.52403,-0.1944 41.31,-0.6876 41.74652,-1.0963 z"
         id="path1390"
         inkscape:connector-curvature="0" />
      <g
         style="fill:#e2953b;fill-opacity:1;stroke:#e2953b;stroke-width:5.6521287;stroke-opacity:1"
         transform="matrix(0.17742071,0,0,0.17642967,157.05974,-1240.5515)"
         id="g1433">
        <ellipse
           ry="105.83333"
           rx="105.83334"
           cy="-1227.8844"
           cx="1605.5897"
           id="path1392"
           style="opacity:1;fill:#e2953b;fill-opacity:1;stroke:#e2953b;stroke-width:10.17383194;stroke-linejoin:round;stroke-miterlimit:4;stroke-dasharray:none;stroke-opacity:1" />
        <ellipse
           style="opacity:1;fill:#e2953b;fill-opacity:1;stroke:#e2953b;stroke-width:10.17383194;stroke-linejoin:round;stroke-miterlimit:4;stroke-dasharray:none;stroke-opacity:1"
           id="ellipse1394"
           cx="2031.9469"
           cy="-1614.932"
           rx="105.83334"
           ry="105.83333" />
        <ellipse
           ry="105.83333"
           rx="105.83334"
           cy="-1370.3057"
           cx="2561.3416"
           id="ellipse1396"
           style="opacity:1;fill:#e2953b;fill-opacity:1;stroke:#e2953b;stroke-width:10.17383194;stroke-linejoin:round;stroke-miterlimit:4;stroke-dasharray:none;stroke-opacity:1" />
        <ellipse
           style="opacity:1;fill:#e2953b;fill-opacity:1;stroke:#e2953b;stroke-width:10.17383194;stroke-linejoin:round;stroke-miterlimit:4;stroke-dasharray:none;stroke-opacity:1"
           id="ellipse1398"
           cx="3041.8992"
           cy="-1799.3843"
           rx="105.83334"
           ry="105.83333" />
        <rect
           style="opacity:1;fill:#e2953b;fill-opacity:1;stroke:#e2953b;stroke-width:10.17415428;stroke-miterlimit:4;stroke-dasharray:none;stroke-opacity:1"
           id="rect1400"
           width="85.718384"
           height="661.0434"
           x="-162.31062"
           y="1974.5601"
           transform="matrix(-0.66257562,-0.74899503,0.75641533,-0.65409162,0,0)" />
        <rect
           transform="matrix(0.40846343,-0.91277469,0.90811292,0.41872535,0,0)"
           y="1178.1924"
           x="2270.1057"
           height="661.0434"
           width="85.718384"
           id="rect1408"
           style="opacity:1;fill:#e2953b;fill-opacity:1;stroke:#e2953b;stroke-width:10.17415428;stroke-miterlimit:4;stroke-dasharray:none;stroke-opacity:1" />
        <rect
           transform="matrix(-0.66257562,-0.74899503,0.75641533,-0.65409162,0,0)"
           y="2821.4155"
           x="-682.67737"
           height="661.0434"
           width="85.718384"
           id="rect1410"
           style="opacity:1;fill:#e2953b;fill-opacity:1;stroke:#e2953b;stroke-width:10.17415428;stroke-miterlimit:4;stroke-dasharray:none;stroke-opacity:1" />
      </g>
    </g>
    <g
       id="g1581"
       style="fill:#e2953b;fill-opacity:1;stroke:#e2953f;stroke-opacity:0.94117647">
      <rect
         y="-874.09857"
         x="-3465.3389"
         height="296.33334"
         width="114.90475"
         id="rect1435"
         style="opacity:1;fill:#e2953b;fill-opacity:1;stroke:#e2953f;stroke-width:1.79999995;stroke-linejoin:round;stroke-miterlimit:4;stroke-dasharray:none;stroke-opacity:0.94117647" />
      <rect
         style="opacity:1;fill:#e2953b;fill-opacity:1;stroke:#e2953f;stroke-width:1.79999995;stroke-linejoin:round;stroke-miterlimit:4;stroke-dasharray:none;stroke-opacity:0.94117647"
         id="rect1437"
         width="114.90475"
         height="407.51746"
         x="-3326.2437"
         y="-989.00336" />
      <rect
         y="-1071.3547"
         x="-3180.8491"
         height="488.76743"
         width="114.90475"
         id="rect1439"
         style="opacity:1;fill:#e2953b;fill-opacity:1;stroke:#e2953f;stroke-width:1.79999995;stroke-linejoin:round;stroke-miterlimit:4;stroke-dasharray:none;stroke-opacity:0.94117647" />
      <rect
         style="opacity:1;fill:#e2953b;fill-opacity:1;stroke:#e2953f;stroke-width:1.80000007;stroke-linejoin:round;stroke-miterlimit:4;stroke-dasharray:none;stroke-opacity:0.94117647"
         id="rect1441"
         width="114.90475"
         height="388.98169"
         x="-3035.4546"
         y="-974.38654" />
      <rect
         y="-907.86273"
         x="-2891.8237"
         height="322.45789"
         width="114.90475"
         id="rect1443"
         style="opacity:1;fill:#e2953b;fill-opacity:1;stroke:#e2953f;stroke-width:1.80000007;stroke-linejoin:round;stroke-miterlimit:4;stroke-dasharray:none;stroke-opacity:0.94117647" />
      <rect
         style="opacity:1;fill:#e2953b;fill-opacity:1;stroke:#e2953f;stroke-width:1.80000007;stroke-linejoin:round;stroke-miterlimit:4;stroke-dasharray:none;stroke-opacity:0.94117647"
         id="rect1445"
         width="114.90475"
         height="420.73169"
         x="-2743.657"
         y="-1007.6484" />
      <rect
         y="-1092.3151"
         x="-2593.9785"
         height="502.37454"
         width="114.90475"
         id="rect1447"
         style="opacity:1;fill:#e2953b;fill-opacity:1;stroke:#e2953f;stroke-width:1.80000007;stroke-linejoin:round;stroke-miterlimit:4;stroke-dasharray:none;stroke-opacity:0.94117647" />
      <rect
         style="opacity:1;fill:#e2953b;fill-opacity:1;stroke:#e2953f;stroke-width:1.80000007;stroke-linejoin:round;stroke-miterlimit:4;stroke-dasharray:none;stroke-opacity:0.94117647"
         id="rect1449"
         width="114.90475"
         height="587.90082"
         x="-2435.7549"
         y="-1179.9795" />
      <rect
         y="-1318.9597"
         x="-2279.6694"
         height="724.74286"
         width="114.90475"
         id="rect1451"
         style="opacity:1;fill:#e2953b;fill-opacity:1;stroke:#e2953f;stroke-width:1.80000007;stroke-linejoin:round;stroke-miterlimit:4;stroke-dasharray:none;stroke-opacity:0.94117647" />
      <rect
         transform="rotate(54.394926)"
         style="opacity:1;fill:#e2953b;fill-opacity:1;stroke:#e2953f;stroke-width:1.79999995;stroke-linejoin:round;stroke-miterlimit:4;stroke-dasharray:none;stroke-opacity:0.94117647"
         id="rect1453"
         width="61.45084"
         height="296.33334"
         x="-2851.4036"
         y="1956.4772" />
      <rect
         y="1775.5294"
         x="-2850.6936"
         height="296.33334"
         width="61.45084"
         id="rect1455"
         style="opacity:1;fill:#e2953b;fill-opacity:1;stroke:#e2953f;stroke-width:1.79999995;stroke-linejoin:round;stroke-miterlimit:4;stroke-dasharray:none;stroke-opacity:0.94117647"
         transform="rotate(54.394926)" />
      <rect
         transform="rotate(131.84207)"
         style="opacity:1;fill:#e2953b;fill-opacity:1;stroke:#e2953f;stroke-width:1.79999995;stroke-linejoin:round;stroke-miterlimit:4;stroke-dasharray:none;stroke-opacity:0.94117647"
         id="rect1457"
         width="61.45084"
         height="296.33334"
         x="1113.5168"
         y="2872.1111" />
      <rect
         y="2751.3765"
         x="1113.7311"
         height="296.33334"
         width="61.45084"
         id="rect1459"
         style="opacity:1;fill:#e2953b;fill-opacity:1;stroke:#e2953f;stroke-width:1.79999995;stroke-linejoin:round;stroke-miterlimit:4;stroke-dasharray:none;stroke-opacity:0.94117647"
         transform="rotate(131.84207)" />
      <rect
         transform="rotate(51.107313)"
         style="opacity:1;fill:#e2953b;fill-opacity:1;stroke:#e2953f;stroke-width:1.79999995;stroke-linejoin:round;stroke-miterlimit:4;stroke-dasharray:none;stroke-opacity:0.94117647"
         id="rect1461"
         width="61.45084"
         height="296.33334"
         x="-2586.7275"
         y="1306.2997" />
      <rect
         y="1009.9663"
         x="-2586.7275"
         height="296.33334"
         width="61.45084"
         id="rect1463"
         style="opacity:1;fill:#e2953b;fill-opacity:1;stroke:#e2953f;stroke-width:1.79999995;stroke-linejoin:round;stroke-miterlimit:4;stroke-dasharray:none;stroke-opacity:0.94117647"
         transform="rotate(51.107313)" />
      <rect
         transform="rotate(51.107313)"
         style="opacity:1;fill:#e2953b;fill-opacity:1;stroke:#e2953f;stroke-width:1.79999995;stroke-linejoin:round;stroke-miterlimit:4;stroke-dasharray:none;stroke-opacity:0.94117647"
         id="rect1465"
         width="61.45084"
         height="296.33334"
         x="-2586.2146"
         y="801.59814" />
      <path
         sodipodi:nodetypes="cccccc"
         inkscape:connector-curvature="0"
         id="path1469"
         d="m -2131.8387,-1571.8426 c -12.0953,174.625 -16.631,173.869 -16.631,173.869 l -60.6403,-63.8144 -38.5827,-47.8287 -55.7472,-59.958 z"
         style="fill:#e2953b;fill-opacity:1;stroke:#e2953f;stroke-width:0.26458332px;stroke-linecap:butt;stroke-linejoin:miter;stroke-opacity:0.94117647" />
    </g>
    <g
       id="g1604">
      <ellipse
         ry="105.83333"
         rx="105.83334"
         cy="-1021.2367"
         cx="1694.8276"
         id="ellipse1412"
         style="opacity:1;fill:#e2953b;fill-opacity:1;stroke:#e2953f;stroke-width:1.80000007;stroke-linejoin:round;stroke-miterlimit:4;stroke-dasharray:none;stroke-opacity:0.94117647" />
      <ellipse
         style="opacity:1;fill:#e2953b;fill-opacity:1;stroke:#e2953f;stroke-width:1.80000007;stroke-linejoin:round;stroke-miterlimit:4;stroke-dasharray:none;stroke-opacity:0.94117647"
         id="ellipse1414"
         cx="2121.1848"
         cy="-1408.2843"
         rx="105.83334"
         ry="105.83333" />
      <ellipse
         ry="105.83333"
         rx="105.83334"
         cy="-1163.658"
         cx="2650.5796"
         id="ellipse1416"
         style="opacity:1;fill:#e2953b;fill-opacity:1;stroke:#e2953f;stroke-width:1.80000007;stroke-linejoin:round;stroke-miterlimit:4;stroke-dasharray:none;stroke-opacity:0.94117647" />
      <ellipse
         style="opacity:1;fill:#e2953b;fill-opacity:1;stroke:#e2953f;stroke-width:1.80000007;stroke-linejoin:round;stroke-miterlimit:4;stroke-dasharray:none;stroke-opacity:0.94117647"
         id="ellipse1418"
         cx="3131.1372"
         cy="-1592.7366"
         rx="105.83334"
         ry="105.83333" />
      <rect
         style="opacity:1;fill:#e2953b;fill-opacity:1;stroke:#e2953f;stroke-width:1.80005717;stroke-miterlimit:4;stroke-dasharray:none;stroke-opacity:0.94117647"
         id="rect1420"
         width="85.718384"
         height="661.0434"
         x="-377.00558"
         y="1904.4747"
         transform="matrix(-0.66257562,-0.74899503,0.75641533,-0.65409162,0,0)" />
      <rect
         transform="matrix(0.40846343,-0.91277469,0.90811292,0.41872535,0,0)"
         y="1344.0649"
         x="2119.803"
         height="661.0434"
         width="85.718384"
         id="rect1422"
         style="opacity:1;fill:#e2953b;fill-opacity:1;stroke:#e2953f;stroke-width:1.80005717;stroke-miterlimit:4;stroke-dasharray:none;stroke-opacity:0.94117647" />
      <rect
         transform="matrix(-0.66257562,-0.74899503,0.75641533,-0.65409162,0,0)"
         y="2751.3301"
         x="-897.37231"
         height="661.0434"
         width="85.718384"
         id="rect1424"
         style="opacity:1;fill:#e2953b;fill-opacity:1;stroke:#e2953f;stroke-width:1.80005717;stroke-miterlimit:4;stroke-dasharray:none;stroke-opacity:0.94117647" />
      <g
         transform="matrix(13.107751,0,0,13.107751,3664.2629,-1614.7191)"
         style="fill:#e2953b;fill-opacity:1;stroke:#e2953f;stroke-width:0.02018526;stroke-opacity:0.94117647"
         id="g1477">
		<g
   style="fill:#e2953b;fill-opacity:1;stroke:#e2953f;stroke-width:0.02018526;stroke-opacity:0.94117647"
   id="g1475">
			
			<path
   style="fill:#e2953b;fill-opacity:1;stroke:#e2953f;stroke-width:0.02018526;stroke-opacity:0.94117647"
   inkscape:connector-curvature="0"
   d="m -95.643793,-46.680226 c -6.403997,-0.763 -9.657997,-1.674 -9.657997,-4.558 0,-4.464 6.464997,-4.943 9.243997,-4.943 4.088,0 8.613,1.976 10.086,4.408 l 0.586,0.971 9.346,-4.324 -0.571,-1.164 c -3.284,-6.716 -9.115,-8.742 -13.617,-9.569 v -5.945 h -10.932997 v 5.909 c -9.627,1.501 -15.336,6.924 -15.336,14.657 0,12.727 11.938,14.058 19.827997,14.941 7.17,0.852 10.512,2.577 10.512,5.42 0,5.509 -7.778,5.935 -10.165,5.935 -5.350997,0 -10.506997,-2.65 -11.988997,-6.163 l -0.492,-1.174 -10.14,4.299 0.5,1.169 c 2.853,6.683 8.965,10.893 17.279,11.943 v 6.4089996 h 10.932997 v -6.7309996 c 7.979,-0.982 15.663,-6.082 15.663,-15.689 0.005,-13.204 -12.679,-14.766 -21.076,-15.801 z"
   id="path1473" />

		</g>

	</g>
    </g>
    <g
       style="stroke-width:0.02018526"
       id="g1481"
       transform="matrix(13.107751,0,0,13.107751,1789.501,-4045.862)">
</g>
    <g
       style="stroke-width:0.02018526"
       id="g1483"
       transform="matrix(13.107751,0,0,13.107751,1789.501,-4045.862)">
</g>
    <g
       style="stroke-width:0.02018526"
       id="g1485"
       transform="matrix(13.107751,0,0,13.107751,1789.501,-4045.862)">
</g>
    <g
       style="stroke-width:0.02018526"
       id="g1487"
       transform="matrix(13.107751,0,0,13.107751,1789.501,-4045.862)">
</g>
    <g
       style="stroke-width:0.02018526"
       id="g1489"
       transform="matrix(13.107751,0,0,13.107751,1789.501,-4045.862)">
</g>
    <g
       style="stroke-width:0.02018526"
       id="g1491"
       transform="matrix(13.107751,0,0,13.107751,1789.501,-4045.862)">
</g>
    <g
       style="stroke-width:0.02018526"
       id="g1493"
       transform="matrix(13.107751,0,0,13.107751,1789.501,-4045.862)">
</g>
    <g
       style="stroke-width:0.02018526"
       id="g1495"
       transform="matrix(13.107751,0,0,13.107751,1789.501,-4045.862)">
</g>
    <g
       style="stroke-width:0.02018526"
       id="g1497"
       transform="matrix(13.107751,0,0,13.107751,1789.501,-4045.862)">
</g>
    <g
       style="stroke-width:0.02018526"
       id="g1499"
       transform="matrix(13.107751,0,0,13.107751,1789.501,-4045.862)">
</g>
    <g
       style="stroke-width:0.02018526"
       id="g1501"
       transform="matrix(13.107751,0,0,13.107751,1789.501,-4045.862)">
</g>
    <g
       style="stroke-width:0.02018526"
       id="g1503"
       transform="matrix(13.107751,0,0,13.107751,1789.501,-4045.862)">
</g>
    <g
       style="stroke-width:0.02018526"
       id="g1505"
       transform="matrix(13.107751,0,0,13.107751,1789.501,-4045.862)">
</g>
    <g
       style="stroke-width:0.02018526"
       id="g1507"
       transform="matrix(13.107751,0,0,13.107751,1789.501,-4045.862)">
</g>
    <g
       style="stroke-width:0.02018526"
       id="g1509"
       transform="matrix(13.107751,0,0,13.107751,1789.501,-4045.862)">
</g>
  </g>
</svg>
